<?xml version="1.0" encoding="UTF-8" standalone="no"?><svg xmlns="http://www.w3.org/2000/svg" xmlns:xlink="http://www.w3.org/1999/xlink" contentScriptType="application/ecmascript" contentStyleType="text/css" height="699px" preserveAspectRatio="none" style="width:1090px;height:699px;" version="1.1" viewBox="0 0 1090 699" width="1090px" zoomAndPan="magnify"><defs><linearGradient id="g1fhal7g36ie6n0" x1="0%" x2="100%" y1="0%" y2="100%"><stop offset="0%" stop-color="#FAEBD7"/><stop offset="100%" stop-color="#FFD700"/></linearGradient><filter height="300%" id="f1fhal7g36ie6n" width="300%" x="-1" y="-1"><feGaussianBlur result="blurOut" stdDeviation="2.0"/><feColorMatrix in="blurOut" result="blurOut2" type="matrix" values="0 0 0 0 0 0 0 0 0 0 0 0 0 0 0 0 0 0 .4 0"/><feOffset dx="4.0" dy="4.0" in="blurOut2" result="blurOut3"/><feBlend in="SourceGraphic" in2="blurOut3" mode="normal"/></filter></defs><g><rect fill="url(#g1fhal7g36ie6n0)" height="699" style="stroke: none; stroke-width: 1.0;" width="1090" x="0" y="0"/><!--MD5=[eb675c038822013868da5fdb082dda01]
entity ##15--><!--MD5=[df84a66ee9e65da1ea5260f3ac5d34ee]
class CViasModule--><rect fill="#FEFECE" filter="url(#f1fhal7g36ie6n)" height="48" id="CViasModule" style="stroke: #A80036; stroke-width: 1.5;" width="105" x="336" y="28.5"/><ellipse cx="351" cy="44.5" fill="#ADD1B2" rx="11" ry="11" style="stroke: #A80036; stroke-width: 1.0;"/><path d="M349.5781,49.8594 Q347.7188,49.8594 346.625,48.4688 Q345.5313,47.0781 345.5313,44.0938 Q345.5313,41.5625 346.6953,39.9063 Q347.8594,38.25 349.8438,38.25 Q351.3125,38.25 351.7813,38.375 Q352.25,38.5781 352.25,38.5781 Q352.25,38.5781 352.25,38.5078 Q352.25,38.4375 352.8594,37.5156 L353.9063,41.1719 L352.5781,41.5781 Q352.1094,40.0313 351.4453,39.3672 Q350.7813,38.7031 349.7188,38.7031 Q349.3281,38.7031 348.5625,40.2344 Q347.7969,41.7656 347.7969,44.0156 Q347.7969,46.4844 348.4609,47.875 Q349.125,49.2656 349.6563,49.2656 Q350.7188,49.2656 351.4766,48.5 Q352.2344,47.7344 352.5781,46.0781 L353.9063,46.6719 Q353.5781,48.0781 352.6797,48.9688 Q351.7813,49.8594 349.5781,49.8594 Z "/><text fill="#000000" font-family="sans-serif" font-size="12" lengthAdjust="spacingAndGlyphs" textLength="73" x="365" y="50.0576">CViasModule</text><line style="stroke: #A80036; stroke-width: 1.5;" x1="337" x2="440" y1="60.5" y2="60.5"/><line style="stroke: #A80036; stroke-width: 1.5;" x1="337" x2="440" y1="68.5" y2="68.5"/><!--MD5=[51b867637d5472f834e723b3a3b2379b]
class CViasService--><rect fill="#FEFECE" filter="url(#f1fhal7g36ie6n)" height="138.1377" id="CViasService" style="stroke: #A80036; stroke-width: 1.5;" width="412" x="487.5" y="176"/><ellipse cx="652.75" cy="192" fill="#DA70D6" rx="11" ry="11" style="stroke: #A80036; stroke-width: 1.0;"/><path d="M649.3438,186.2813 L649.3438,185.875 L655.6563,185.875 L655.6563,186.2813 L653.125,186.2813 Q653.125,186.2813 653.2734,186.4141 Q653.4219,186.5469 653.4219,186.8125 L653.4219,196.2969 Q653.4219,196.5625 653.6406,196.6953 Q653.8594,196.8281 653.8594,196.8281 L655.6563,196.8281 L655.6563,197.2344 L649.3438,197.2344 L649.3438,196.8281 L650.875,196.8281 Q651.2031,196.8281 651.3359,196.6953 Q651.4688,196.5625 651.4688,196.2969 L651.4688,186.8125 Q651.4688,186.5469 651.3359,186.4141 Q651.2031,186.2813 650.875,186.2813 L649.3438,186.2813 Z "/><text fill="#000000" font-family="sans-serif" font-size="12" lengthAdjust="spacingAndGlyphs" textLength="73" x="673.25" y="197.5576">CViasService</text><line style="stroke: #A80036; stroke-width: 1.5;" x1="488.5" x2="898.5" y1="208" y2="208"/><rect fill="none" height="6" style="stroke: #C82930; stroke-width: 1.0;" width="6" x="495.5" y="216"/><text fill="#000000" font-family="sans-serif" font-size="11" lengthAdjust="spacingAndGlyphs" textLength="72" x="507.5" y="224.606">CTaskManager</text><line style="stroke: #A80036; stroke-width: 1.5;" x1="488.5" x2="898.5" y1="231.0229" y2="231.0229"/><ellipse cx="498.5" cy="242.0229" fill="#84BE84" rx="3" ry="3" style="stroke: #038048; stroke-width: 1.0;"/><text fill="#000000" font-family="sans-serif" font-size="11" lengthAdjust="spacingAndGlyphs" textLength="386" x="507.5" y="247.6289">virtual LONG parseHttpRequest(const AIX_HTTP_REQUEST*, CHAR**, ULONG* )</text><ellipse cx="498.5" cy="257.0459" fill="#84BE84" rx="3" ry="3" style="stroke: #038048; stroke-width: 1.0;"/><text fill="#000000" font-family="sans-serif" font-size="11" lengthAdjust="spacingAndGlyphs" textLength="353" x="507.5" y="262.6519">virtual LONG createTask(const AIX_HTTP_REQUEST*, CHAR**, ULONG* )</text><ellipse cx="498.5" cy="272.0688" fill="#84BE84" rx="3" ry="3" style="stroke: #038048; stroke-width: 1.0;"/><text fill="#000000" font-family="sans-serif" font-size="11" lengthAdjust="spacingAndGlyphs" textLength="355" x="507.5" y="277.6748">virtual LONG updateTask(const AIX_HTTP_REQUEST*, CHAR**, ULONG* )</text><ellipse cx="498.5" cy="287.0918" fill="#84BE84" rx="3" ry="3" style="stroke: #038048; stroke-width: 1.0;"/><text fill="#000000" font-family="sans-serif" font-size="11" lengthAdjust="spacingAndGlyphs" textLength="351" x="507.5" y="292.6978">virtual LONG deleteTask(const AIX_HTTP_REQUEST*, CHAR**, ULONG* )</text><ellipse cx="498.5" cy="302.1147" fill="#84BE84" rx="3" ry="3" style="stroke: #038048; stroke-width: 1.0;"/><text fill="#000000" font-family="sans-serif" font-size="11" lengthAdjust="spacingAndGlyphs" textLength="368" x="507.5" y="307.7207">virtual LONG featureExtract(const AIX_HTTP_REQUEST*, CHAR**, ULONG* )</text><!--MD5=[bc5c42e68b24969a67be079fca3a42b5]
class CHttpServer--><rect fill="#FEFECE" filter="url(#f1fhal7g36ie6n)" height="123.1147" id="CHttpServer" style="stroke: #A80036; stroke-width: 1.5;" width="342" x="110.5" y="183.5"/><ellipse cx="244.25" cy="199.5" fill="#ADD1B2" rx="11" ry="11" style="stroke: #A80036; stroke-width: 1.0;"/><path d="M242.8281,204.8594 Q240.9688,204.8594 239.875,203.4688 Q238.7813,202.0781 238.7813,199.0938 Q238.7813,196.5625 239.9453,194.9063 Q241.1094,193.25 243.0938,193.25 Q244.5625,193.25 245.0313,193.375 Q245.5,193.5781 245.5,193.5781 Q245.5,193.5781 245.5,193.5078 Q245.5,193.4375 246.1094,192.5156 L247.1563,196.1719 L245.8281,196.5781 Q245.3594,195.0313 244.6953,194.3672 Q244.0313,193.7031 242.9688,193.7031 Q242.5781,193.7031 241.8125,195.2344 Q241.0469,196.7656 241.0469,199.0156 Q241.0469,201.4844 241.7109,202.875 Q242.375,204.2656 242.9063,204.2656 Q243.9688,204.2656 244.7266,203.5 Q245.4844,202.7344 245.8281,201.0781 L247.1563,201.6719 Q246.8281,203.0781 245.9297,203.9688 Q245.0313,204.8594 242.8281,204.8594 Z "/><text fill="#000000" font-family="sans-serif" font-size="12" lengthAdjust="spacingAndGlyphs" textLength="66" x="264.75" y="205.0576">CHttpServer</text><line style="stroke: #A80036; stroke-width: 1.5;" x1="111.5" x2="451.5" y1="215.5" y2="215.5"/><line style="stroke: #A80036; stroke-width: 1.5;" x1="111.5" x2="451.5" y1="223.5" y2="223.5"/><ellipse cx="121.5" cy="234.5" fill="#84BE84" rx="3" ry="3" style="stroke: #038048; stroke-width: 1.0;"/><text fill="#000000" font-family="sans-serif" font-size="11" lengthAdjust="spacingAndGlyphs" textLength="316" x="130.5" y="240.106">VIAS_REQ_TYPE_S parseRouter(const AIX_HTTP_REQUEST_S*)</text><ellipse cx="121.5" cy="249.5229" fill="#84BE84" rx="3" ry="3" style="stroke: #038048; stroke-width: 1.0;"/><text fill="#000000" font-family="sans-serif" font-size="11" lengthAdjust="spacingAndGlyphs" textLength="53" x="130.5" y="255.1289">LONG init()</text><ellipse cx="121.5" cy="264.5459" fill="#84BE84" rx="3" ry="3" style="stroke: #038048; stroke-width: 1.0;"/><text fill="#000000" font-family="sans-serif" font-size="11" lengthAdjust="spacingAndGlyphs" textLength="56" x="130.5" y="270.1519">LONG run()</text><ellipse cx="121.5" cy="279.5688" fill="#84BE84" rx="3" ry="3" style="stroke: #038048; stroke-width: 1.0;"/><text fill="#000000" font-family="sans-serif" font-size="11" lengthAdjust="spacingAndGlyphs" textLength="89" x="130.5" y="285.1748">LONG shutdown()</text><ellipse cx="121.5" cy="294.5918" fill="#84BE84" rx="3" ry="3" style="stroke: #038048; stroke-width: 1.0;"/><text fill="#000000" font-family="sans-serif" font-size="11" lengthAdjust="spacingAndGlyphs" text-decoration="underline" textLength="191" x="130.5" y="300.1978">LONG sendHttpMsg(const char*, char*)</text><!--MD5=[99870df0307211053df0c58a5f56b127]
class CVideoService--><rect fill="#FEFECE" filter="url(#f1fhal7g36ie6n)" height="48" id="CVideoService" style="stroke: #A80036; stroke-width: 1.5;" width="112" x="166.5" y="430.5"/><ellipse cx="181.5" cy="446.5" fill="#ADD1B2" rx="11" ry="11" style="stroke: #A80036; stroke-width: 1.0;"/><path d="M180.0781,451.8594 Q178.2188,451.8594 177.125,450.4688 Q176.0313,449.0781 176.0313,446.0938 Q176.0313,443.5625 177.1953,441.9063 Q178.3594,440.25 180.3438,440.25 Q181.8125,440.25 182.2813,440.375 Q182.75,440.5781 182.75,440.5781 Q182.75,440.5781 182.75,440.5078 Q182.75,440.4375 183.3594,439.5156 L184.4063,443.1719 L183.0781,443.5781 Q182.6094,442.0313 181.9453,441.3672 Q181.2813,440.7031 180.2188,440.7031 Q179.8281,440.7031 179.0625,442.2344 Q178.2969,443.7656 178.2969,446.0156 Q178.2969,448.4844 178.9609,449.875 Q179.625,451.2656 180.1563,451.2656 Q181.2188,451.2656 181.9766,450.5 Q182.7344,449.7344 183.0781,448.0781 L184.4063,448.6719 Q184.0781,450.0781 183.1797,450.9688 Q182.2813,451.8594 180.0781,451.8594 Z "/><text fill="#000000" font-family="sans-serif" font-size="12" lengthAdjust="spacingAndGlyphs" textLength="80" x="195.5" y="452.0576">CVideoService</text><line style="stroke: #A80036; stroke-width: 1.5;" x1="167.5" x2="277.5" y1="462.5" y2="462.5"/><line style="stroke: #A80036; stroke-width: 1.5;" x1="167.5" x2="277.5" y1="470.5" y2="470.5"/><!--MD5=[d73c2763a3df87cd0626e441bbffa95c]
class CViasOdService--><rect fill="#FEFECE" filter="url(#f1fhal7g36ie6n)" height="48" id="CViasOdService" style="stroke: #A80036; stroke-width: 1.5;" width="121" x="6" y="617.5"/><ellipse cx="21" cy="633.5" fill="#ADD1B2" rx="11" ry="11" style="stroke: #A80036; stroke-width: 1.0;"/><path d="M19.5781,638.8594 Q17.7188,638.8594 16.625,637.4688 Q15.5313,636.0781 15.5313,633.0938 Q15.5313,630.5625 16.6953,628.9063 Q17.8594,627.25 19.8438,627.25 Q21.3125,627.25 21.7813,627.375 Q22.25,627.5781 22.25,627.5781 Q22.25,627.5781 22.25,627.5078 Q22.25,627.4375 22.8594,626.5156 L23.9063,630.1719 L22.5781,630.5781 Q22.1094,629.0313 21.4453,628.3672 Q20.7813,627.7031 19.7188,627.7031 Q19.3281,627.7031 18.5625,629.2344 Q17.7969,630.7656 17.7969,633.0156 Q17.7969,635.4844 18.4609,636.875 Q19.125,638.2656 19.6563,638.2656 Q20.7188,638.2656 21.4766,637.5 Q22.2344,636.7344 22.5781,635.0781 L23.9063,635.6719 Q23.5781,637.0781 22.6797,637.9688 Q21.7813,638.8594 19.5781,638.8594 Z "/><text fill="#000000" font-family="sans-serif" font-size="12" lengthAdjust="spacingAndGlyphs" textLength="89" x="35" y="639.0576">CViasOdService</text><line style="stroke: #A80036; stroke-width: 1.5;" x1="7" x2="126" y1="649.5" y2="649.5"/><line style="stroke: #A80036; stroke-width: 1.5;" x1="7" x2="126" y1="657.5" y2="657.5"/><!--MD5=[cef680d31053a8b63cf0bdd6ef140979]
class CViasClService--><rect fill="#FEFECE" filter="url(#f1fhal7g36ie6n)" height="48" id="CViasClService" style="stroke: #A80036; stroke-width: 1.5;" width="117" x="162" y="617.5"/><ellipse cx="177" cy="633.5" fill="#ADD1B2" rx="11" ry="11" style="stroke: #A80036; stroke-width: 1.0;"/><path d="M175.5781,638.8594 Q173.7188,638.8594 172.625,637.4688 Q171.5313,636.0781 171.5313,633.0938 Q171.5313,630.5625 172.6953,628.9063 Q173.8594,627.25 175.8438,627.25 Q177.3125,627.25 177.7813,627.375 Q178.25,627.5781 178.25,627.5781 Q178.25,627.5781 178.25,627.5078 Q178.25,627.4375 178.8594,626.5156 L179.9063,630.1719 L178.5781,630.5781 Q178.1094,629.0313 177.4453,628.3672 Q176.7813,627.7031 175.7188,627.7031 Q175.3281,627.7031 174.5625,629.2344 Q173.7969,630.7656 173.7969,633.0156 Q173.7969,635.4844 174.4609,636.875 Q175.125,638.2656 175.6563,638.2656 Q176.7188,638.2656 177.4766,637.5 Q178.2344,636.7344 178.5781,635.0781 L179.9063,635.6719 Q179.5781,637.0781 178.6797,637.9688 Q177.7813,638.8594 175.5781,638.8594 Z "/><text fill="#000000" font-family="sans-serif" font-size="12" lengthAdjust="spacingAndGlyphs" textLength="85" x="191" y="639.0576">CViasClService</text><line style="stroke: #A80036; stroke-width: 1.5;" x1="163" x2="278" y1="649.5" y2="649.5"/><line style="stroke: #A80036; stroke-width: 1.5;" x1="163" x2="278" y1="657.5" y2="657.5"/><!--MD5=[5c8ffd4b0340dd75675a9a71ea017832]
class CViasItsService--><rect fill="#FEFECE" filter="url(#f1fhal7g36ie6n)" height="48" id="CViasItsService" style="stroke: #A80036; stroke-width: 1.5;" width="118" x="314.5" y="617.5"/><ellipse cx="329.5" cy="633.5" fill="#ADD1B2" rx="11" ry="11" style="stroke: #A80036; stroke-width: 1.0;"/><path d="M328.0781,638.8594 Q326.2188,638.8594 325.125,637.4688 Q324.0313,636.0781 324.0313,633.0938 Q324.0313,630.5625 325.1953,628.9063 Q326.3594,627.25 328.3438,627.25 Q329.8125,627.25 330.2813,627.375 Q330.75,627.5781 330.75,627.5781 Q330.75,627.5781 330.75,627.5078 Q330.75,627.4375 331.3594,626.5156 L332.4063,630.1719 L331.0781,630.5781 Q330.6094,629.0313 329.9453,628.3672 Q329.2813,627.7031 328.2188,627.7031 Q327.8281,627.7031 327.0625,629.2344 Q326.2969,630.7656 326.2969,633.0156 Q326.2969,635.4844 326.9609,636.875 Q327.625,638.2656 328.1563,638.2656 Q329.2188,638.2656 329.9766,637.5 Q330.7344,636.7344 331.0781,635.0781 L332.4063,635.6719 Q332.0781,637.0781 331.1797,637.9688 Q330.2813,638.8594 328.0781,638.8594 Z "/><text fill="#000000" font-family="sans-serif" font-size="12" lengthAdjust="spacingAndGlyphs" textLength="86" x="343.5" y="639.0576">CViasItsService</text><line style="stroke: #A80036; stroke-width: 1.5;" x1="315.5" x2="431.5" y1="649.5" y2="649.5"/><line style="stroke: #A80036; stroke-width: 1.5;" x1="315.5" x2="431.5" y1="657.5" y2="657.5"/><path d="M624,29.5 L624,75.0088 A0,0 0 0 0 624,75.0088 L689.5,75.0088 L693.5,175.76 L697.5,75.0088 L763,75.0088 A0,0 0 0 0 763,75.0088 L763,39.5 L753,29.5 L624,29.5 A0,0 0 0 0 624,29.5 " fill="#FBFB77" filter="url(#f1fhal7g36ie6n)" style="stroke: #A80036; stroke-width: 1.0;"/><path d="M753,29.5 L753,39.5 L763,39.5 L753,29.5 " fill="#FBFB77" style="stroke: #A80036; stroke-width: 1.0;"/><text fill="#000000" font-family="sans-serif" font-size="13" lengthAdjust="spacingAndGlyphs" textLength="118" x="630" y="49.3979">In vias, every service</text><text fill="#000000" font-family="sans-serif" font-size="13" lengthAdjust="spacingAndGlyphs" textLength="100" x="630" y="67.1523">extends this one.</text><!--MD5=[1d0ebee79bf83cca89f172240673df7e]
class CTaskManager--><rect fill="#FEFECE" filter="url(#f1fhal7g36ie6n)" height="123.1147" id="CTaskManager" style="stroke: #A80036; stroke-width: 1.5;" width="445" x="315" y="393"/><ellipse cx="491.25" cy="409" fill="#ADD1B2" rx="11" ry="11" style="stroke: #A80036; stroke-width: 1.0;"/><path d="M489.8281,414.3594 Q487.9688,414.3594 486.875,412.9688 Q485.7813,411.5781 485.7813,408.5938 Q485.7813,406.0625 486.9453,404.4063 Q488.1094,402.75 490.0938,402.75 Q491.5625,402.75 492.0313,402.875 Q492.5,403.0781 492.5,403.0781 Q492.5,403.0781 492.5,403.0078 Q492.5,402.9375 493.1094,402.0156 L494.1563,405.6719 L492.8281,406.0781 Q492.3594,404.5313 491.6953,403.8672 Q491.0313,403.2031 489.9688,403.2031 Q489.5781,403.2031 488.8125,404.7344 Q488.0469,406.2656 488.0469,408.5156 Q488.0469,410.9844 488.7109,412.375 Q489.375,413.7656 489.9063,413.7656 Q490.9688,413.7656 491.7266,413 Q492.4844,412.2344 492.8281,410.5781 L494.1563,411.1719 Q493.8281,412.5781 492.9297,413.4688 Q492.0313,414.3594 489.8281,414.3594 Z "/><text fill="#000000" font-family="sans-serif" font-size="12" lengthAdjust="spacingAndGlyphs" textLength="84" x="511.75" y="414.5576">CTaskManager</text><line style="stroke: #A80036; stroke-width: 1.5;" x1="316" x2="759" y1="425" y2="425"/><line style="stroke: #A80036; stroke-width: 1.5;" x1="316" x2="759" y1="433" y2="433"/><ellipse cx="326" cy="444" fill="#84BE84" rx="3" ry="3" style="stroke: #038048; stroke-width: 1.0;"/><text fill="#000000" font-family="sans-serif" font-size="11" lengthAdjust="spacingAndGlyphs" textLength="53" x="335" y="449.606">LONG init()</text><ellipse cx="326" cy="459.0229" fill="#84BE84" rx="3" ry="3" style="stroke: #038048; stroke-width: 1.0;"/><text fill="#000000" font-family="sans-serif" font-size="11" lengthAdjust="spacingAndGlyphs" textLength="293" x="335" y="464.6289">VOID updateResource(VIAS_OD_VIDEO_TASK_PARAM_S*)</text><ellipse cx="326" cy="474.0459" fill="#84BE84" rx="3" ry="3" style="stroke: #038048; stroke-width: 1.0;"/><text fill="#000000" font-family="sans-serif" font-size="11" lengthAdjust="spacingAndGlyphs" text-decoration="underline" textLength="419" x="335" y="479.6519">LONG initTaskResource(VIAS_OD_VIDEO_TASK_PARAM_S*, Task_Resource_Info_S)</text><ellipse cx="326" cy="489.0688" fill="#84BE84" rx="3" ry="3" style="stroke: #038048; stroke-width: 1.0;"/><text fill="#000000" font-family="sans-serif" font-size="11" lengthAdjust="spacingAndGlyphs" textLength="232" x="335" y="494.6748">LONG addTask(std::shared_ptr&lt;CViasPipeline&gt;)</text><ellipse cx="326" cy="504.0918" fill="#84BE84" rx="3" ry="3" style="stroke: #038048; stroke-width: 1.0;"/><text fill="#000000" font-family="sans-serif" font-size="11" lengthAdjust="spacingAndGlyphs" textLength="117" x="335" y="509.6978">LONG stopTask(CHAR*)</text><!--MD5=[098c78e2c798597bda933022ef03b33d]
class CPictureService--><rect fill="#FEFECE" filter="url(#f1fhal7g36ie6n)" height="48" id="CPictureService" style="stroke: #A80036; stroke-width: 1.5;" width="119" x="795" y="430.5"/><ellipse cx="810" cy="446.5" fill="#ADD1B2" rx="11" ry="11" style="stroke: #A80036; stroke-width: 1.0;"/><path d="M808.5781,451.8594 Q806.7188,451.8594 805.625,450.4688 Q804.5313,449.0781 804.5313,446.0938 Q804.5313,443.5625 805.6953,441.9063 Q806.8594,440.25 808.8438,440.25 Q810.3125,440.25 810.7813,440.375 Q811.25,440.5781 811.25,440.5781 Q811.25,440.5781 811.25,440.5078 Q811.25,440.4375 811.8594,439.5156 L812.9063,443.1719 L811.5781,443.5781 Q811.1094,442.0313 810.4453,441.3672 Q809.7813,440.7031 808.7188,440.7031 Q808.3281,440.7031 807.5625,442.2344 Q806.7969,443.7656 806.7969,446.0156 Q806.7969,448.4844 807.4609,449.875 Q808.125,451.2656 808.6563,451.2656 Q809.7188,451.2656 810.4766,450.5 Q811.2344,449.7344 811.5781,448.0781 L812.9063,448.6719 Q812.5781,450.0781 811.6797,450.9688 Q810.7813,451.8594 808.5781,451.8594 Z "/><text fill="#000000" font-family="sans-serif" font-size="12" lengthAdjust="spacingAndGlyphs" textLength="87" x="824" y="452.0576">CPictureService</text><line style="stroke: #A80036; stroke-width: 1.5;" x1="796" x2="913" y1="462.5" y2="462.5"/><line style="stroke: #A80036; stroke-width: 1.5;" x1="796" x2="913" y1="470.5" y2="470.5"/><!--MD5=[00e89417125fe81cc07ec1522c5e22bd]
class CViasPictureService--><rect fill="#FEFECE" filter="url(#f1fhal7g36ie6n)" height="48" id="CViasPictureService" style="stroke: #A80036; stroke-width: 1.5;" width="143" x="778" y="617.5"/><ellipse cx="793" cy="633.5" fill="#ADD1B2" rx="11" ry="11" style="stroke: #A80036; stroke-width: 1.0;"/><path d="M791.5781,638.8594 Q789.7188,638.8594 788.625,637.4688 Q787.5313,636.0781 787.5313,633.0938 Q787.5313,630.5625 788.6953,628.9063 Q789.8594,627.25 791.8438,627.25 Q793.3125,627.25 793.7813,627.375 Q794.25,627.5781 794.25,627.5781 Q794.25,627.5781 794.25,627.5078 Q794.25,627.4375 794.8594,626.5156 L795.9063,630.1719 L794.5781,630.5781 Q794.1094,629.0313 793.4453,628.3672 Q792.7813,627.7031 791.7188,627.7031 Q791.3281,627.7031 790.5625,629.2344 Q789.7969,630.7656 789.7969,633.0156 Q789.7969,635.4844 790.4609,636.875 Q791.125,638.2656 791.6563,638.2656 Q792.7188,638.2656 793.4766,637.5 Q794.2344,636.7344 794.5781,635.0781 L795.9063,635.6719 Q795.5781,637.0781 794.6797,637.9688 Q793.7813,638.8594 791.5781,638.8594 Z "/><text fill="#000000" font-family="sans-serif" font-size="12" lengthAdjust="spacingAndGlyphs" textLength="111" x="807" y="639.0576">CViasPictureService</text><line style="stroke: #A80036; stroke-width: 1.5;" x1="779" x2="920" y1="649.5" y2="649.5"/><line style="stroke: #A80036; stroke-width: 1.5;" x1="779" x2="920" y1="657.5" y2="657.5"/><!--MD5=[975a7b9df87398215b2255f0948025cd]
class CViasFeature--><rect fill="#FEFECE" filter="url(#f1fhal7g36ie6n)" height="48" id="CViasFeature" style="stroke: #A80036; stroke-width: 1.5;" width="107" x="959" y="430.5"/><ellipse cx="974" cy="446.5" fill="#ADD1B2" rx="11" ry="11" style="stroke: #A80036; stroke-width: 1.0;"/><path d="M972.5781,451.8594 Q970.7188,451.8594 969.625,450.4688 Q968.5313,449.0781 968.5313,446.0938 Q968.5313,443.5625 969.6953,441.9063 Q970.8594,440.25 972.8438,440.25 Q974.3125,440.25 974.7813,440.375 Q975.25,440.5781 975.25,440.5781 Q975.25,440.5781 975.25,440.5078 Q975.25,440.4375 975.8594,439.5156 L976.9063,443.1719 L975.5781,443.5781 Q975.1094,442.0313 974.4453,441.3672 Q973.7813,440.7031 972.7188,440.7031 Q972.3281,440.7031 971.5625,442.2344 Q970.7969,443.7656 970.7969,446.0156 Q970.7969,448.4844 971.4609,449.875 Q972.125,451.2656 972.6563,451.2656 Q973.7188,451.2656 974.4766,450.5 Q975.2344,449.7344 975.5781,448.0781 L976.9063,448.6719 Q976.5781,450.0781 975.6797,450.9688 Q974.7813,451.8594 972.5781,451.8594 Z "/><text fill="#000000" font-family="sans-serif" font-size="12" lengthAdjust="spacingAndGlyphs" textLength="75" x="988" y="452.0576">CViasFeature</text><line style="stroke: #A80036; stroke-width: 1.5;" x1="960" x2="1065" y1="462.5" y2="462.5"/><line style="stroke: #A80036; stroke-width: 1.5;" x1="960" x2="1065" y1="470.5" y2="470.5"/><!--MD5=[dfd47fff1ba7ee751fd848aa8a5578b2]
class CViasOdFeature--><rect fill="#FEFECE" filter="url(#f1fhal7g36ie6n)" height="48" id="CViasOdFeature" style="stroke: #A80036; stroke-width: 1.5;" width="123" x="956" y="617.5"/><ellipse cx="971" cy="633.5" fill="#ADD1B2" rx="11" ry="11" style="stroke: #A80036; stroke-width: 1.0;"/><path d="M969.5781,638.8594 Q967.7188,638.8594 966.625,637.4688 Q965.5313,636.0781 965.5313,633.0938 Q965.5313,630.5625 966.6953,628.9063 Q967.8594,627.25 969.8438,627.25 Q971.3125,627.25 971.7813,627.375 Q972.25,627.5781 972.25,627.5781 Q972.25,627.5781 972.25,627.5078 Q972.25,627.4375 972.8594,626.5156 L973.9063,630.1719 L972.5781,630.5781 Q972.1094,629.0313 971.4453,628.3672 Q970.7813,627.7031 969.7188,627.7031 Q969.3281,627.7031 968.5625,629.2344 Q967.7969,630.7656 967.7969,633.0156 Q967.7969,635.4844 968.4609,636.875 Q969.125,638.2656 969.6563,638.2656 Q970.7188,638.2656 971.4766,637.5 Q972.2344,636.7344 972.5781,635.0781 L973.9063,635.6719 Q973.5781,637.0781 972.6797,637.9688 Q971.7813,638.8594 969.5781,638.8594 Z "/><text fill="#000000" font-family="sans-serif" font-size="12" lengthAdjust="spacingAndGlyphs" textLength="91" x="985" y="639.0576">CViasOdFeature</text><line style="stroke: #A80036; stroke-width: 1.5;" x1="957" x2="1078" y1="649.5" y2="649.5"/><line style="stroke: #A80036; stroke-width: 1.5;" x1="957" x2="1078" y1="657.5" y2="657.5"/><!--MD5=[926cdf336c450971d5096a0499fe346b]
class CKeepAliveCtx--><rect fill="#FEFECE" filter="url(#f1fhal7g36ie6n)" height="93.0688" id="CKeepAliveCtx" style="stroke: #A80036; stroke-width: 1.5;" width="143" x="468" y="595"/><ellipse cx="496.95" cy="611" fill="#ADD1B2" rx="11" ry="11" style="stroke: #A80036; stroke-width: 1.0;"/><path d="M495.5281,616.3594 Q493.6688,616.3594 492.575,614.9688 Q491.4813,613.5781 491.4813,610.5938 Q491.4813,608.0625 492.6453,606.4063 Q493.8094,604.75 495.7938,604.75 Q497.2625,604.75 497.7313,604.875 Q498.2,605.0781 498.2,605.0781 Q498.2,605.0781 498.2,605.0078 Q498.2,604.9375 498.8094,604.0156 L499.8563,607.6719 L498.5281,608.0781 Q498.0594,606.5313 497.3953,605.8672 Q496.7313,605.2031 495.6688,605.2031 Q495.2781,605.2031 494.5125,606.7344 Q493.7469,608.2656 493.7469,610.5156 Q493.7469,612.9844 494.4109,614.375 Q495.075,615.7656 495.6063,615.7656 Q496.6688,615.7656 497.4266,615 Q498.1844,614.2344 498.5281,612.5781 L499.8563,613.1719 Q499.5281,614.5781 498.6297,615.4688 Q497.7313,616.3594 495.5281,616.3594 Z "/><text fill="#000000" font-family="sans-serif" font-size="12" lengthAdjust="spacingAndGlyphs" textLength="80" x="514.05" y="616.5576">CKeepAliveCtx</text><line style="stroke: #A80036; stroke-width: 1.5;" x1="469" x2="610" y1="627" y2="627"/><line style="stroke: #A80036; stroke-width: 1.5;" x1="469" x2="610" y1="635" y2="635"/><ellipse cx="479" cy="646" fill="#84BE84" rx="3" ry="3" style="stroke: #038048; stroke-width: 1.0;"/><text fill="#000000" font-family="sans-serif" font-size="11" lengthAdjust="spacingAndGlyphs" textLength="117" x="488" y="651.606">LONG init(errorCallback)</text><ellipse cx="479" cy="661.0229" fill="#84BE84" rx="3" ry="3" style="stroke: #038048; stroke-width: 1.0;"/><text fill="#000000" font-family="sans-serif" font-size="11" lengthAdjust="spacingAndGlyphs" textLength="57" x="488" y="666.6289">LONG exit()</text><ellipse cx="479" cy="676.0459" fill="#84BE84" rx="3" ry="3" style="stroke: #038048; stroke-width: 1.0;"/><text fill="#000000" font-family="sans-serif" font-size="11" lengthAdjust="spacingAndGlyphs" textLength="87" x="488" y="681.6519">VOID notifyAlive()</text><!--MD5=[7b84760a8d491c7e3a380a810df0c18d]
class CEnv--><rect fill="#FEFECE" filter="url(#f1fhal7g36ie6n)" height="88.8232" id="CEnv" style="stroke: #A80036; stroke-width: 1.5;" width="97" x="798" y="8"/><ellipse cx="814.35" cy="29.3887" fill="#FF7700" rx="11" ry="11" style="stroke: #A80036; stroke-width: 1.0;"/><path d="M813.3344,29.1699 Q811.5375,28.373 810.8734,27.7793 Q810.2094,27.1855 810.2094,25.9199 Q810.2094,24.9199 811.0453,24.0293 Q811.8813,23.1387 813.3969,23.1387 Q815.0688,23.1387 815.6625,23.3262 Q816.2563,23.5918 816.2563,23.5918 Q816.2563,23.5918 816.2563,23.498 Q816.2563,23.4043 816.6156,22.3418 L817.4594,25.8574 L816.2719,26.3105 Q815.5219,24.5918 814.8969,24.0918 Q814.2719,23.5918 813.2719,23.5918 Q813.0063,23.5918 812.5453,24.2949 Q812.0844,24.998 812.0844,25.7949 Q812.0844,26.5137 812.5141,26.9512 Q812.9438,27.3887 814.8656,28.248 Q816.4594,28.9043 817.1547,29.7402 Q817.85,30.5762 817.85,31.7012 Q817.85,32.8887 817.0219,33.8184 Q816.1938,34.748 813.6,34.748 Q812.9438,34.748 812.4125,34.4824 Q811.8031,34.2949 811.475,34.2949 Q811.475,34.2949 811.475,34.4277 Q811.475,34.5605 810.7094,35.373 L810.0844,31.498 L811.3344,31.1074 Q811.9438,33.0293 812.7719,33.6621 Q813.6,34.2949 813.6625,34.2949 Q814.8031,34.2949 815.3656,33.6309 Q815.9281,32.9668 815.9281,31.7012 Q815.9281,31.0293 815.2953,30.4043 Q814.6625,29.7793 813.3344,29.1699 Z "/><text fill="#000000" font-family="sans-serif" font-size="12" font-style="italic" lengthAdjust="spacingAndGlyphs" textLength="66" x="826.65" y="26.752">«Singleton»</text><text fill="#000000" font-family="sans-serif" font-size="12" lengthAdjust="spacingAndGlyphs" textLength="29" x="845.15" y="43.1406">CEnv</text><line style="stroke: #A80036; stroke-width: 1.5;" x1="799" x2="894" y1="50.7773" y2="50.7773"/><line style="stroke: #A80036; stroke-width: 1.5;" x1="799" x2="894" y1="58.7773" y2="58.7773"/><ellipse cx="809" cy="69.7773" fill="#84BE84" rx="3" ry="3" style="stroke: #038048; stroke-width: 1.0;"/><text fill="#000000" font-family="sans-serif" font-size="11" lengthAdjust="spacingAndGlyphs" textLength="53" x="818" y="75.3833">LONG init()</text><ellipse cx="809" cy="84.8003" fill="#84BE84" rx="3" ry="3" style="stroke: #038048; stroke-width: 1.0;"/><text fill="#000000" font-family="sans-serif" font-size="11" lengthAdjust="spacingAndGlyphs" textLength="71" x="818" y="90.4063">LONG initEnv()</text><!--MD5=[2b65e6e27e652fe235a45a4cf7210835]
reverse link CViasModule to CViasService--><path d="M436.76,83.64 C476.3,108.34 533.78,144.24 584.34,175.82 " fill="none" id="CViasModule&lt;-CViasService" style="stroke: #A80036; stroke-width: 1.0;"/><polygon fill="url(#g1fhal7g36ie6n0)" points="425.59,76.67,428.5572,83.2423,435.7652,83.0312,432.798,76.4588,425.59,76.67" style="stroke: #A80036; stroke-width: 1.0;"/><text fill="#000000" font-family="sans-serif" font-size="13" lengthAdjust="spacingAndGlyphs" textLength="67" x="532.5" y="142.8979">aggregation</text><!--MD5=[b113f9e79bbf342dad3c2c3a82403900]
reverse link CViasModule to CHttpServer--><path d="M369,88.22 C354.13,114.7 333.26,151.84 315.64,183.22 " fill="none" id="CViasModule&lt;-CHttpServer" style="stroke: #A80036; stroke-width: 1.0;"/><polygon fill="url(#g1fhal7g36ie6n0)" points="375.38,76.86,368.9555,80.135,369.5075,87.3249,375.9321,84.0499,375.38,76.86" style="stroke: #A80036; stroke-width: 1.0;"/><text fill="#000000" font-family="sans-serif" font-size="13" lengthAdjust="spacingAndGlyphs" textLength="67" x="346.5" y="142.8979">aggregation</text><!--MD5=[eb36e8c8bf29ff6d20ebe725e7536f82]
reverse link CViasService to CVideoService--><path d="M468.47,315.21 C411.05,336.7 350.59,362.8 297.5,393 C279.32,403.34 261.02,418 247.04,430.31 " fill="none" id="CViasService&lt;-CVideoService" style="stroke: #A80036; stroke-width: 1.0;"/><polygon fill="none" points="466.21,308.59,487.4,308.26,471.04,321.73,466.21,308.59" style="stroke: #A80036; stroke-width: 1.0;"/><text fill="#000000" font-family="sans-serif" font-size="13" lengthAdjust="spacingAndGlyphs" textLength="34" x="392.5" y="359.8979">public</text><!--MD5=[2ec4eef490b9a048416d3f5eb902cefc]
reverse link CVideoService to CViasOdService--><path d="M190.02,494.02 C158.59,531.29 111.99,586.55 85.94,617.44 " fill="none" id="CVideoService&lt;-CViasOdService" style="stroke: #A80036; stroke-width: 1.0;"/><polygon fill="none" points="184.81,489.33,203.06,478.56,195.52,498.36,184.81,489.33" style="stroke: #A80036; stroke-width: 1.0;"/><text fill="#000000" font-family="sans-serif" font-size="13" lengthAdjust="spacingAndGlyphs" textLength="34" x="145.5" y="561.8979">public</text><!--MD5=[32fd12052daf1e23c42e66a48a1372d6]
reverse link CVideoService to CViasClService--><path d="M222.03,498.63 C221.63,535.72 221.07,587.8 220.75,617.44 " fill="none" id="CVideoService&lt;-CViasClService" style="stroke: #A80036; stroke-width: 1.0;"/><polygon fill="none" points="215.03,498.48,222.25,478.56,229.03,498.63,215.03,498.48" style="stroke: #A80036; stroke-width: 1.0;"/><text fill="#000000" font-family="sans-serif" font-size="13" lengthAdjust="spacingAndGlyphs" textLength="34" x="222.5" y="561.8979">public</text><!--MD5=[166bd0c9856b16333658e0146b08fe02]
reverse link CVideoService to CViasItsService--><path d="M254.15,494.28 C284.57,531.54 329.52,586.62 354.68,617.44 " fill="none" id="CVideoService&lt;-CViasItsService" style="stroke: #A80036; stroke-width: 1.0;"/><polygon fill="none" points="248.54,498.48,241.32,478.56,259.39,489.62,248.54,498.48" style="stroke: #A80036; stroke-width: 1.0;"/><text fill="#000000" font-family="sans-serif" font-size="13" lengthAdjust="spacingAndGlyphs" textLength="34" x="313.5" y="561.8979">public</text><!--MD5=[443668f88ffe2481145c5f7c8da7d56f]
reverse link CViasService to CPictureService--><path d="M759.06,330.5 C787.02,366.53 817.47,405.77 836.28,430.01 " fill="none" id="CViasService&lt;-CPictureService" style="stroke: #A80036; stroke-width: 1.0;"/><polygon fill="none" points="753.17,334.32,746.44,314.23,764.23,325.74,753.17,334.32" style="stroke: #A80036; stroke-width: 1.0;"/><!--MD5=[f54d04e3260c5171ddc7cc8bd583618d]
reverse link CPictureService to CViasPictureService--><path d="M853.33,498.63 C852.33,535.72 850.92,587.8 850.12,617.44 " fill="none" id="CPictureService&lt;-CViasPictureService" style="stroke: #A80036; stroke-width: 1.0;"/><polygon fill="none" points="846.34,498.36,853.88,478.56,860.33,498.74,846.34,498.36" style="stroke: #A80036; stroke-width: 1.0;"/><!--MD5=[da63a23dec93a672f3e744f18a3e8f05]
reverse link CViasService to CViasFeature--><path d="M819.53,320.98 C856.07,343.49 895.75,368.68 931.5,393 C948.91,404.85 967.8,418.88 982.95,430.45 " fill="none" id="CViasService&lt;-CViasFeature" style="stroke: #A80036; stroke-width: 1.0;"/><polygon fill="#A80036" points="808.3,314.09,811.323,320.6369,818.5289,320.3645,815.506,313.8176,808.3,314.09" style="stroke: #A80036; stroke-width: 1.0;"/><!--MD5=[7cc46e94111849ce47a8c9c1612f7d2b]
reverse link CViasFeature to CViasOdFeature--><path d="M1013.67,498.63 C1014.67,535.72 1016.08,587.8 1016.88,617.44 " fill="none" id="CViasFeature&lt;-CViasOdFeature" style="stroke: #A80036; stroke-width: 1.0;"/><polygon fill="none" points="1006.67,498.74,1013.12,478.56,1020.66,498.36,1006.67,498.74" style="stroke: #A80036; stroke-width: 1.0;"/><!--MD5=[f97aca9e481319d8398122bd9a183258]
reverse link CViasService to CTaskManager--><path d="M634.25,324.81 C617.28,347.38 599.05,371.62 583.05,392.92 " fill="none" id="CViasService&lt;-CTaskManager" style="stroke: #A80036; stroke-width: 1.0;"/><polygon fill="url(#g1fhal7g36ie6n0)" points="642.2,314.23,635.3979,316.624,634.9916,323.8237,641.7937,321.4296,642.2,314.23" style="stroke: #A80036; stroke-width: 1.0;"/><!--MD5=[295a76ec07806bc378feb737f86f7d72]
reverse link CTaskManager to CKeepAliveCtx--><path d="M538.3,529.25 C538.54,551.38 538.79,575 539.01,594.76 " fill="none" id="CTaskManager&lt;-CKeepAliveCtx" style="stroke: #A80036; stroke-width: 1.0;"/><polygon fill="url(#g1fhal7g36ie6n0)" points="538.15,516.08,534.2095,522.1193,538.2687,528.0794,542.2091,522.0401,538.15,516.08" style="stroke: #A80036; stroke-width: 1.0;"/><!--MD5=[c942850080d1db6a5faba72ee5366531]
@startuml vias_service

skinparam backgroundcolor AntiqueWhite/Gold

CViasModule o- - CViasService : aggregation
CViasModule o- - CHttpServer : aggregation

CViasService <|- - CVideoService : public
CVideoService <|- - CViasOdService : public
CVideoService <|- - CViasClService : public
CVideoService <|- - CViasItsService : public

together {
    class CViasOdService
    class CViasClService
    class CViasItsService
}

class CViasService{
    
    -CTaskManager

    + virtual LONG parseHttpRequest(const AIX_HTTP_REQUEST*, CHAR**, ULONG* )
    + virtual LONG createTask(const AIX_HTTP_REQUEST*, CHAR**, ULONG* )
    + virtual LONG updateTask(const AIX_HTTP_REQUEST*, CHAR**, ULONG* )
    + virtual LONG deleteTask(const AIX_HTTP_REQUEST*, CHAR**, ULONG* )
    + virtual LONG featureExtract(const AIX_HTTP_REQUEST*, CHAR**, ULONG* )
}
note top of CViasService : In vias, every service\nextends this one.
class CViasService << (I,orchid) >>

class CTaskManager{
    + LONG init()
    + VOID updateResource(VIAS_OD_VIDEO_TASK_PARAM_S*)
    + {static} LONG initTaskResource(VIAS_OD_VIDEO_TASK_PARAM_S*, Task_Resource_Info_S)
    + LONG addTask(std::shared_ptr<CViasPipeline>)
    + LONG stopTask(CHAR*)
}

CViasService <|- - CPictureService
CPictureService <|- - CViasPictureService

CViasService *- - CViasFeature
CViasFeature <|- - CViasOdFeature

CViasService o- - CTaskManager
CTaskManager o- - CKeepAliveCtx

class CKeepAliveCtx{
    + LONG init(errorCallback)
    + LONG exit()
    + VOID notifyAlive()
}

class CEnv << (S,#FF7700) Singleton >> {
    + LONG init()
    + LONG initEnv()
}

class CHttpServer{
    + VIAS_REQ_TYPE_S parseRouter(const AIX_HTTP_REQUEST_S*)
    + LONG init()
    + LONG run()
    + LONG shutdown()
    + {static} LONG sendHttpMsg(const char*, char*)
}

@enduml

PlantUML version 1.2020.10(Sun May 17 17:35:57 CST 2020)
(GPL source distribution)
Java Runtime: Java(TM) SE Runtime Environment
JVM: Java HotSpot(TM) Client VM
Java Version: 1.8.0_261-b12
Operating System: Windows 10
Default Encoding: GBK
Language: zh
Country: CN
--></g></svg>